<svg xmlns="http://www.w3.org/2000/svg" width="256" height="256" viewBox="0 0 256 256">
  <defs>
    <linearGradient id="bg" x1="0" y1="0" x2="1" y2="1">
      <stop offset="0" stop-color="#0b1426"/>
      <stop offset="1" stop-color="#050a12"/>
    </linearGradient>
    <linearGradient id="accent" x1="0" y1="0" x2="1" y2="1">
      <stop offset="0" stop-color="#47bfff"/>
      <stop offset="1" stop-color="#863bff"/>
    </linearGradient>
    <linearGradient id="piece" x1="0" y1="0" x2="0" y2="1">
      <stop offset="0" stop-color="#7fd4ff"/>
      <stop offset="1" stop-color="#3d8eff"/>
    </linearGradient>
  </defs>
  <rect x="8" y="8" width="240" height="240" rx="44" fill="url(#bg)"/>
  <rect x="8" y="8" width="240" height="240" rx="44" fill="none" stroke="url(#accent)" stroke-width="8"/>
  <!-- Wikipedia-standard knight (45x45 viewBox), light fill with dark detail strokes -->
  <g transform="translate(33.5 30) scale(4.2)">
    <g fill="none" fill-rule="evenodd" stroke="#0b1426" stroke-width="1.5" stroke-linecap="round" stroke-linejoin="round">
      <path d="M22 10c10.5 1 16.5 8 16 29H15c0-9 10-6.5 8-21" fill="url(#piece)" stroke-linecap="butt"/>
      <path d="M24 18c.38 2.43-4.65 1.15-5 0 0-3.32 5.17-1.12 5 0z" fill="url(#piece)"/>
      <path d="M9.5 25.5A.5.5 0 1 1 9 25.5a.5.5 0 1 1 .5 0z" fill="#0b1426" stroke="none"/>
      <path d="M15 15.5c4.5 2 7 12 7 12l2.5 2.5c-4.5 1.5-15-1.5-15-10.5 0-3 3-5.5 5.5-4z" fill="url(#piece)" stroke-linecap="butt"/>
      <path d="M15 15.5c-4.5 2-5.5 5.5-5.5 8.5" stroke-linecap="butt"/>
      <path d="M28 32c-2.5 2.5-7 2.5-11 0" stroke-linecap="butt"/>
    </g>
  </g>
</svg>
