<svg xmlns="http://www.w3.org/2000/svg" style="display: none;">
  <!-- Wikipedia Standard White Pieces -->
  <symbol id="wK" viewBox="0 0 45 45">
    <g fill="#fff" stroke="#000" stroke-width="1.5" stroke-linecap="round" stroke-linejoin="round">
      <path d="M22.5 11.63V6M20 8h5" stroke-linejoin="miter"/>
      <path d="M22.5 25s4.5-7.5 3-10c-1.5-2.5-6-2.5-6-2.5s-4.5 0-6 2.5c-1.5 2.5 3 10 3 10" stroke-linecap="butt"/>
      <path d="M11.5 37c5.5 3.5 15.5 3.5 21 0v-7s9-4.5 6-10.5c-4-1-1-4-1-4s-3.5-3.5-6-1.5c-1.5 1.5-2 4.5-2 4.5s-2.5 1.5-4 1.5-4-1.5-4-1.5-0.5-3-2-4.5c-2.5-2-6 1.5-6 1.5s3 3-1 4c-3 6 6 10.5 6 10.5v7z"/>
      <path d="M11.5 30c5.5-3 15.5-3 21 0m-21 3.5c5.5-3 15.5-3 21 0m-21 3.5c5.5-3 15.5-3 21 0"/>
    </g>
  </symbol>
  <symbol id="wQ" viewBox="0 0 45 45">
    <g fill="#fff" stroke="#000" stroke-width="1.5" stroke-linecap="round" stroke-linejoin="round">
      <path d="M8 12a2 2 0 1 1-4 0 2 2 0 1 1 4 0zM24.5 7.5a2 2 0 1 1-4 0 2 2 0 1 1 4 0zM41 12a2 2 0 1 1-4 0 2 2 0 1 1 4 0zM11 20a2 2 0 1 1-4 0 2 2 0 1 1 4 0zM38 20a2 2 0 1 1-4 0 2 2 0 1 1 4 0z"/>
      <path d="M9 26c8.5-1.5 21-1.5 27 0l2-12-7 11V11l-5.5 13.5-3-15-3 15-5.5-13.5V25L7 14l2 12z" stroke-linecap="butt"/>
      <path d="M9 26c0 2 1.5 2 2.5 4 1 1.5 1 1 .5 3.5-1.5 1-1.5 2.5-1.5 2.5h25s0-1.5-1.5-2.5c-.5-2.5-.5-2 .5-3.5 1-2 2.5-2 2.5-4-8.5-1.5-18.5-1.5-27 0z"/>
      <path d="M11.5 30c3.5-1 18.5-1 22 0m-21.5 3c3.5-1 18 1 21 0" fill="none"/>
    </g>
  </symbol>
  <symbol id="wR" viewBox="0 0 45 45">
    <g fill="#fff" stroke="#000" stroke-width="1.5" stroke-linecap="round" stroke-linejoin="round">
      <path d="M9 39h27v-3H9v3zM12 36v-4h21v4H12zM11 14V9h4v2h5V9h5v2h5V9h4v5" stroke-linecap="butt"/>
      <path d="M34 14l-3 3H14l-3-3"/>
      <path d="M31 17v12.5H14V17" stroke-linecap="butt" stroke-linejoin="miter"/>
      <path d="M31 29.5l1.5 2.5h-20l1.5-2.5"/>
      <path d="M11 14h23" fill="none" stroke-linejoin="miter"/>
    </g>
  </symbol>
  <symbol id="wB" viewBox="0 0 45 45">
    <g fill="none" fill-rule="evenodd" stroke="#000" stroke-width="1.5" stroke-linecap="round" stroke-linejoin="round">
      <g fill="#fff" stroke-linecap="butt">
        <path d="M9 36c3.39 1.09 6.78 2.18 10.17 3.27h6.66c3.39-1.09 6.78-2.18 10.17-3.27V33H9v3z"/>
        <path d="M15 33c2.5 2.5 12.5 2.5 15 0M10 30.1c3.2 2.8 21.8 2.8 25 0V27H10v3.1z"/>
        <path d="M22.5 10c0 2 1.5 2.5 1.5 2.5s-2.5 1.5-2.5 3.5c0 2.5 2.5 2.5 2.5 2.5s1.5 1.5 1.5 4c0 3.5-2.5 12-2.5 12h-6s-2.5-8.5-2.5-12c0-2.5 1.5-4 1.5-4s2.5 0 2.5-2.5c0-2 1.5-2.5 1.5-2.5s1.5.5 1.5 2.5z"/>
      </g>
      <path d="M17.5 18s5 5 10 0M22.5 5v5m-3-2h6"/>
    </g>
  </symbol>
  <symbol id="wN" viewBox="0 0 45 45">
    <g fill="none" fill-rule="evenodd" stroke="#000" stroke-width="1.5" stroke-linecap="round" stroke-linejoin="round">
      <path d="M22 10c10.5 1 16.5 8 16 29H15c0-9 10-6.5 8-21" fill="#fff" stroke-linecap="butt"/>
      <path d="M24 18c.38 2.43-4.65 1.15-5 0 0-3.32 5.17-1.12 5 0z" fill="#fff"/>
      <path d="M9.5 25.5A.5.5 0 1 1 9 25.5a.5.5 0 1 1 .5 0z" fill="#000" stroke="none"/>
      <path d="M15 15.5c4.5 2 7 12 7 12l2.5 2.5c-4.5 1.5-15-1.5-15-10.5 0-3 3-5.5 5.5-4z" fill="#fff" stroke-linecap="butt"/>
      <path d="M15 15.5c-4.5 2-5.5 5.5-5.5 8.5" stroke-linecap="butt"/>
      <path d="M28 32c-2.5 2.5-7 2.5-11 0" stroke-linecap="butt"/>
    </g>
  </symbol>
  <symbol id="wP" viewBox="0 0 45 45">
    <path d="M22.5 9c-2.21 0-4 1.79-4 4 0 .89.29 1.71.78 2.38C17.33 16.5 16 18.59 16 21c0 2.03.94 3.84 2.41 5.03-3 1.06-7.41 5.55-7.41 13.47h23c0-7.92-4.41-12.41-7.41-13.47 1.47-1.19 2.41-3 2.41-5.03 0-2.41-1.33-4.5-3.28-5.62.49-.67.78-1.49.78-2.38 0-2.21-1.79-4-4-4z" fill="#fff" stroke="#000" stroke-width="1.5" stroke-linecap="round"/>
  </symbol>

  <!-- Wikipedia Standard Black Pieces (With White Borders) -->
  <symbol id="bK" viewBox="0 0 45 45">
    <g fill="#000" stroke="#fff" stroke-width="1.5" stroke-linecap="round" stroke-linejoin="round">
      <path d="M22.5 11.63V6M20 8h5" stroke-linejoin="miter"/>
      <path d="M22.5 25s4.5-7.5 3-10c-1.5-2.5-6-2.5-6-2.5s-4.5 0-6 2.5c-1.5 2.5 3 10 3 10" stroke-linecap="butt"/>
      <path d="M11.5 37c5.5 3.5 15.5 3.5 21 0v-7s9-4.5 6-10.5c-4-1-1-4-1-4s-3.5-3.5-6-1.5c-1.5 1.5-2 4.5-2 4.5s-2.5 1.5-4 1.5-4-1.5-4-1.5-0.5-3-2-4.5c-2.5-2-6 1.5-6 1.5s3 3-1 4c-3 6 6 10.5 6 10.5v7z"/>
      <path d="M11.5 30c5.5-3 15.5-3 21 0m-21 3.5c5.5-3 15.5-3 21 0m-21 3.5c5.5-3 15.5-3 21 0"/>
    </g>
  </symbol>
  <symbol id="bQ" viewBox="0 0 45 45">
    <g fill="#000" stroke="#fff" stroke-width="1.5" stroke-linecap="round" stroke-linejoin="round">
      <path d="M8 12a2 2 0 1 1-4 0 2 2 0 1 1 4 0zM24.5 7.5a2 2 0 1 1-4 0 2 2 0 1 1 4 0zM41 12a2 2 0 1 1-4 0 2 2 0 1 1 4 0zM11 20a2 2 0 1 1-4 0 2 2 0 1 1 4 0zM38 20a2 2 0 1 1-4 0 2 2 0 1 1 4 0z"/>
      <path d="M9 26c8.5-1.5 21-1.5 27 0l2-12-7 11V11l-5.5 13.5-3-15-3 15-5.5-13.5V25L7 14l2 12z" stroke-linecap="butt"/>
      <path d="M9 26c0 2 1.5 2 2.5 4 1 1.5 1 1 .5 3.5-1.5 1-1.5 2.5-1.5 2.5h25s0-1.5-1.5-2.5c-.5-2.5-.5-2 .5-3.5 1-2 2.5-2 2.5-4-8.5-1.5-18.5-1.5-27 0z"/>
      <path d="M11.5 30c3.5-1 18.5-1 22 0m-21.5 3c3.5-1 18 1 21 0" fill="none"/>
    </g>
  </symbol>
  <symbol id="bR" viewBox="0 0 45 45">
    <g fill="#000" stroke="#fff" stroke-width="1.5" stroke-linecap="round" stroke-linejoin="round">
      <path d="M9 39h27v-3H9v3zM12 36v-4h21v4H12zM11 14V9h4v2h5V9h5v2h5V9h4v5" stroke-linecap="butt"/>
      <path d="M34 14l-3 3H14l-3-3"/>
      <path d="M31 17v12.5H14V17" stroke-linecap="butt" stroke-linejoin="miter"/>
      <path d="M31 29.5l1.5 2.5h-20l1.5-2.5"/>
      <path d="M11 14h23" fill="none" stroke-linejoin="miter"/>
    </g>
  </symbol>
  <symbol id="bB" viewBox="0 0 45 45">
    <g fill="none" fill-rule="evenodd" stroke="#fff" stroke-width="1.5" stroke-linecap="round" stroke-linejoin="round">
      <g fill="#000" stroke-linecap="butt">
        <path d="M9 36c3.39 1.09 6.78 2.18 10.17 3.27h6.66c3.39-1.09 6.78-2.18 10.17-3.27V33H9v3z"/>
        <path d="M15 33c2.5 2.5 12.5 2.5 15 0M10 30.1c3.2 2.8 21.8 2.8 25 0V27H10v3.1z"/>
        <path d="M22.5 10c0 2 1.5 2.5 1.5 2.5s-2.5 1.5-2.5 3.5c0 2.5 2.5 2.5 2.5 2.5s1.5 1.5 1.5 4c0 3.5-2.5 12-2.5 12h-6s-2.5-8.5-2.5-12c0-2.5 1.5-4 1.5-4s2.5 0 2.5-2.5c0-2 1.5-2.5 1.5-2.5s1.5.5 1.5 2.5z"/>
      </g>
      <path d="M17.5 18s5 5 10 0M22.5 5v5m-3-2h6"/>
    </g>
  </symbol>
  <symbol id="bN" viewBox="0 0 45 45">
    <g fill="none" fill-rule="evenodd" stroke="#fff" stroke-width="1.5" stroke-linecap="round" stroke-linejoin="round">
      <path d="M22 10c10.5 1 16.5 8 16 29H15c0-9 10-6.5 8-21" fill="#000" stroke-linecap="butt"/>
      <path d="M24 18c.38 2.43-4.65 1.15-5 0 0-3.32 5.17-1.12 5 0z" fill="#000"/>
      <path d="M15 15.5c4.5 2 7 12 7 12l2.5 2.5c-4.5 1.5-15-1.5-15-10.5 0-3 3-5.5 5.5-4z" fill="#000" stroke-linecap="butt"/>
      <path d="M15 15.5c-4.5 2-5.5 5.5-5.5 8.5" stroke-linecap="butt"/>
      <path d="M28 32c-2.5 2.5-7 2.5-11 0" stroke-linecap="butt"/>
    </g>
  </symbol>
  <symbol id="bP" viewBox="0 0 45 45">
    <path d="M22.5 9c-2.21 0-4 1.79-4 4 0 .89.29 1.71.78 2.38C17.33 16.5 16 18.59 16 21c0 2.03.94 3.84 2.41 5.03-3 1.06-7.41 5.55-7.41 13.47h23c0-7.92-4.41-12.41-7.41-13.47 1.47-1.19 2.41-3 2.41-5.03 0-2.41-1.33-4.5-3.28-5.62.49-.67.78-1.49.78-2.38 0-2.21-1.79-4-4-4z" fill="#000" stroke="#fff" stroke-width="1.5" stroke-linecap="round"/>
  </symbol>
</svg>
